# MagicaVoxel @ Ephtracy

# group
g the pot mouth

# material
mtllib the pot mouth.mtl
usemtl palette

# normals
vn -1 0 0
vn 1 0 0
vn 0 0 1
vn 0 0 -1
vn 0 -1 0
vn 0 1 0

# texcoords
vt 0.373047 0.5
vt 0.396484 0.5
vt 0.537109 0.5
vt 0.970703 0.5
vt 0.994141 0.5

# verts
v -16 18 8
v -16 18 -5
v -16 23 8
v -16 23 -5
v -15 16 8
v -15 16 -5
v -15 17 2
v -15 17 -4
v -15 18 8
v -15 18 2
v -15 18 -4
v -15 18 -5
v -15 23 8
v -15 23 -5
v -15 24 8
v -15 24 -5
v -14 24 8
v -14 24 -5
v -14 26 8
v -14 26 -5
v -13 26 8
v -13 26 -5
v -13 27 8
v -13 27 -5
v -12 23 8
v -12 23 7
v -12 25 8
v -12 25 7
v -11 19 8
v -11 19 7
v -11 23 8
v -11 23 7
v -11 27 8
v -11 27 -5
v -11 28 8
v -11 28 -5
v -10 17 8
v -10 17 7
v -10 18 8
v -10 18 7
v -10 19 8
v -10 19 7
v -9 25 8
v -9 25 7
v -9 27 8
v -9 27 7
v -8 21 8
v -8 21 7
v -8 25 8
v -8 25 7
v -7 18 8
v -7 18 7
v -7 19 8
v -7 19 7
v -7 21 8
v -7 21 7
v -5 23 8
v -5 23 7
v -5 27 8
v -5 27 7
v -4 20 8
v -4 20 7
v -4 23 8
v -4 23 7
v -1 21 8
v -1 21 7
v -1 24 8
v -1 24 7
v 0 24 8
v 0 24 7
v 0 27 8
v 0 27 7
v 3 21 8
v 3 21 7
v 3 23 8
v 3 23 7
v 4 19 8
v 4 19 -5
v 4 20 8
v 4 20 -5
v 4 23 8
v 4 23 7
v 4 25 8
v 4 25 7
v 5 25 8
v 5 25 7
v 5 27 8
v 5 27 7
v 7 18 8
v 7 18 -5
v 7 19 8
v 7 19 -5
v 7 20 8
v 7 20 7
v 7 21 8
v 7 21 7
v 8 21 8
v 8 21 7
v 8 23 8
v 8 23 7
v 9 23 8
v 9 23 7
v 9 25 8
v 9 25 7
v 10 17 8
v 10 17 -5
v 10 18 8
v 10 18 -5
v 10 25 8
v 10 25 7
v 10 27 8
v 10 27 7
v 11 19 8
v 11 19 7
v 11 20 8
v 11 20 7
v 12 20 8
v 12 20 7
v 12 22 8
v 12 22 7
v 13 16 8
v 13 16 -5
v 13 17 8
v 13 17 -5
v 13 22 8
v 13 22 7
v 13 24 8
v 13 24 7
v 14 18 8
v 14 18 7
v 14 19 8
v 14 19 7
v 14 24 8
v 14 24 7
v 14 25 8
v 14 25 7
v 15 19 8
v 15 19 7
v 15 21 8
v 15 21 7
v 16 21 8
v 16 21 7
v 16 22 8
v 16 22 7
v 16 23 8
v 16 23 7
v -13 23 8
v -13 23 7
v -13 25 8
v -13 25 7
v -12 19 8
v -12 19 7
v -12 23 8
v -12 23 7
v -11 17 8
v -11 17 7
v -11 19 8
v -11 19 7
v -10 25 8
v -10 25 7
v -10 26 8
v -10 26 7
v -10 27 8
v -10 27 7
v -9 16 8
v -9 16 -5
v -9 17 8
v -9 17 -5
v -9 21 8
v -9 21 7
v -9 25 8
v -9 25 7
v -8 18 8
v -8 18 7
v -8 21 8
v -8 21 7
v -6 17 8
v -6 17 -5
v -6 18 8
v -6 18 -5
v -6 23 8
v -6 23 7
v -6 27 8
v -6 27 7
v -5 20 8
v -5 20 7
v -5 23 8
v -5 23 7
v -4 18 8
v -4 18 -5
v -4 19 8
v -4 19 -5
v -2 21 8
v -2 21 7
v -2 24 8
v -2 24 7
v -1 19 8
v -1 19 -5
v -1 20 8
v -1 20 -5
v -1 24 8
v -1 24 7
v -1 27 8
v -1 27 7
v 2 21 8
v 2 21 7
v 2 23 8
v 2 23 7
v 3 23 8
v 3 23 7
v 3 25 8
v 3 25 7
v 4 25 8
v 4 25 7
v 4 27 8
v 4 27 7
v 6 20 8
v 6 20 7
v 6 21 8
v 6 21 7
v 7 21 8
v 7 21 7
v 7 23 8
v 7 23 7
v 8 23 8
v 8 23 7
v 8 25 8
v 8 25 7
v 9 25 8
v 9 25 7
v 9 27 8
v 9 27 7
v 10 19 8
v 10 19 7
v 10 20 8
v 10 20 7
v 11 20 8
v 11 20 7
v 11 22 8
v 11 22 7
v 12 22 8
v 12 22 7
v 12 24 8
v 12 24 7
v 13 18 8
v 13 18 7
v 13 19 8
v 13 19 7
v 13 24 8
v 13 24 7
v 13 25 8
v 13 25 7
v 13 27 8
v 13 27 -5
v 13 28 8
v 13 28 -5
v 14 19 8
v 14 19 7
v 14 21 8
v 14 21 7
v 15 21 8
v 15 21 7
v 15 23 8
v 15 23 7
v 15 26 8
v 15 26 -5
v 15 27 8
v 15 27 -5
v 16 16 8
v 16 16 -5
v 16 17 8
v 16 17 -5
v 16 25 8
v 16 25 -5
v 16 26 8
v 16 26 -5
v 17 17 8
v 17 17 -5
v 17 18 8
v 17 18 -5
v 17 23 8
v 17 23 -5
v 17 25 8
v 17 25 -5
v 18 18 8
v 18 18 -5
v 18 23 8
v 18 23 -5
v -16 18 8
v -16 23 8
v -15 16 8
v -15 18 8
v -15 19 8
v -15 22 8
v -15 23 8
v -15 24 8
v -14 17 8
v -14 19 8
v -14 22 8
v -14 23 8
v -14 24 8
v -14 26 8
v -13 23 8
v -13 25 8
v -13 26 8
v -13 27 8
v -12 19 8
v -12 23 8
v -12 25 8
v -12 26 8
v -11 17 8
v -11 19 8
v -11 23 8
v -11 27 8
v -11 28 8
v -10 17 8
v -10 18 8
v -10 19 8
v -10 25 8
v -10 26 8
v -10 27 8
v -9 16 8
v -9 17 8
v -9 21 8
v -9 25 8
v -9 27 8
v -8 18 8
v -8 21 8
v -8 25 8
v -7 18 8
v -7 19 8
v -7 21 8
v -6 17 8
v -6 18 8
v -6 23 8
v -6 27 8
v -5 19 8
v -5 20 8
v -5 23 8
v -5 27 8
v -4 18 8
v -4 19 8
v -4 20 8
v -4 23 8
v -2 20 8
v -2 21 8
v -2 24 8
v -1 19 8
v -1 20 8
v -1 21 8
v -1 24 8
v -1 27 8
v 0 24 8
v 0 27 8
v 2 21 8
v 2 23 8
v 3 21 8
v 3 23 8
v 3 25 8
v 4 19 8
v 4 20 8
v 4 21 8
v 4 23 8
v 4 25 8
v 4 27 8
v 5 25 8
v 5 27 8
v 6 20 8
v 6 21 8
v 7 18 8
v 7 19 8
v 7 20 8
v 7 21 8
v 7 23 8
v 8 19 8
v 8 20 8
v 8 21 8
v 8 23 8
v 8 25 8
v 9 23 8
v 9 25 8
v 9 27 8
v 10 17 8
v 10 18 8
v 10 19 8
v 10 20 8
v 10 25 8
v 10 27 8
v 11 18 8
v 11 19 8
v 11 20 8
v 11 22 8
v 12 20 8
v 12 22 8
v 12 24 8
v 12 26 8
v 12 27 8
v 13 16 8
v 13 17 8
v 13 18 8
v 13 19 8
v 13 22 8
v 13 24 8
v 13 25 8
v 13 27 8
v 13 28 8
v 14 17 8
v 14 18 8
v 14 19 8
v 14 21 8
v 14 24 8
v 14 25 8
v 14 26 8
v 15 17 8
v 15 18 8
v 15 19 8
v 15 21 8
v 15 23 8
v 15 24 8
v 15 25 8
v 15 26 8
v 15 27 8
v 16 16 8
v 16 17 8
v 16 18 8
v 16 19 8
v 16 21 8
v 16 22 8
v 16 23 8
v 16 24 8
v 16 25 8
v 16 26 8
v 17 17 8
v 17 18 8
v 17 19 8
v 17 22 8
v 17 23 8
v 17 25 8
v 18 18 8
v 18 23 8
v -13 23 7
v -13 25 7
v -12 19 7
v -12 23 7
v -12 25 7
v -11 17 7
v -11 19 7
v -11 23 7
v -10 17 7
v -10 18 7
v -10 19 7
v -10 25 7
v -10 26 7
v -10 27 7
v -9 21 7
v -9 25 7
v -9 27 7
v -8 18 7
v -8 21 7
v -8 25 7
v -7 18 7
v -7 19 7
v -7 21 7
v -6 23 7
v -6 27 7
v -5 20 7
v -5 23 7
v -5 27 7
v -4 20 7
v -4 23 7
v -2 21 7
v -2 24 7
v -1 21 7
v -1 24 7
v -1 27 7
v 0 24 7
v 0 27 7
v 2 21 7
v 2 23 7
v 3 21 7
v 3 23 7
v 3 25 7
v 4 23 7
v 4 25 7
v 4 27 7
v 5 25 7
v 5 27 7
v 6 20 7
v 6 21 7
v 7 20 7
v 7 21 7
v 7 23 7
v 8 21 7
v 8 23 7
v 8 25 7
v 9 23 7
v 9 25 7
v 9 27 7
v 10 19 7
v 10 20 7
v 10 25 7
v 10 27 7
v 11 19 7
v 11 20 7
v 11 22 7
v 12 20 7
v 12 22 7
v 12 24 7
v 13 18 7
v 13 19 7
v 13 22 7
v 13 24 7
v 13 25 7
v 14 18 7
v 14 19 7
v 14 21 7
v 14 24 7
v 14 25 7
v 15 19 7
v 15 21 7
v 15 23 7
v 16 21 7
v 16 22 7
v 16 23 7
v -16 18 -5
v -16 23 -5
v -15 16 -5
v -15 18 -5
v -15 23 -5
v -15 24 -5
v -14 24 -5
v -14 26 -5
v -13 26 -5
v -13 27 -5
v -11 27 -5
v -11 28 -5
v -9 16 -5
v -9 17 -5
v -6 17 -5
v -6 18 -5
v -4 18 -5
v -4 19 -5
v -1 19 -5
v -1 20 -5
v 4 19 -5
v 4 20 -5
v 7 18 -5
v 7 19 -5
v 10 17 -5
v 10 18 -5
v 13 16 -5
v 13 17 -5
v 13 27 -5
v 13 28 -5
v 15 26 -5
v 15 27 -5
v 16 16 -5
v 16 17 -5
v 16 25 -5
v 16 26 -5
v 17 17 -5
v 17 18 -5
v 17 23 -5
v 17 25 -5
v 18 18 -5
v 18 23 -5
v -15 16 8
v -9 16 8
v 13 16 8
v 16 16 8
v -15 16 -5
v -9 16 -5
v 13 16 -5
v 16 16 -5
v -9 17 8
v -6 17 8
v 10 17 8
v 13 17 8
v 16 17 8
v 17 17 8
v -9 17 -5
v -6 17 -5
v 10 17 -5
v 13 17 -5
v 16 17 -5
v 17 17 -5
v -16 18 8
v -15 18 8
v -6 18 8
v -4 18 8
v 7 18 8
v 10 18 8
v 17 18 8
v 18 18 8
v -15 18 2
v -15 18 -4
v -16 18 -5
v -15 18 -5
v -6 18 -5
v -4 18 -5
v 7 18 -5
v 10 18 -5
v 17 18 -5
v 18 18 -5
v -11 19 8
v -10 19 8
v -4 19 8
v -1 19 8
v 4 19 8
v 7 19 8
v 13 19 8
v 14 19 8
v -11 19 7
v -10 19 7
v 13 19 7
v 14 19 7
v -4 19 -5
v -1 19 -5
v 4 19 -5
v 7 19 -5
v -1 20 8
v 4 20 8
v 10 20 8
v 11 20 8
v 10 20 7
v 11 20 7
v -1 20 -5
v 4 20 -5
v -8 21 8
v -7 21 8
v 6 21 8
v 7 21 8
v 14 21 8
v 15 21 8
v -8 21 7
v -7 21 7
v 6 21 7
v 7 21 7
v 14 21 7
v 15 21 7
v 11 22 8
v 12 22 8
v 11 22 7
v 12 22 7
v -12 23 8
v -11 23 8
v -5 23 8
v -4 23 8
v 2 23 8
v 3 23 8
v 7 23 8
v 8 23 8
v 15 23 8
v 16 23 8
v -12 23 7
v -11 23 7
v -5 23 7
v -4 23 7
v 2 23 7
v 3 23 7
v 7 23 7
v 8 23 7
v 15 23 7
v 16 23 7
v -2 24 8
v -1 24 8
v 12 24 8
v 13 24 8
v -2 24 7
v -1 24 7
v 12 24 7
v 13 24 7
v -13 25 8
v -12 25 8
v -9 25 8
v -8 25 8
v 3 25 8
v 4 25 8
v 8 25 8
v 9 25 8
v 13 25 8
v 14 25 8
v -13 25 7
v -12 25 7
v -9 25 7
v -8 25 7
v 3 25 7
v 4 25 7
v 8 25 7
v 9 25 7
v 13 25 7
v 14 25 7
v -10 27 8
v -9 27 8
v -6 27 8
v -5 27 8
v -1 27 8
v 0 27 8
v 4 27 8
v 5 27 8
v 9 27 8
v 10 27 8
v -10 27 7
v -9 27 7
v -6 27 7
v -5 27 7
v -1 27 7
v 0 27 7
v 4 27 7
v 5 27 7
v 9 27 7
v 10 27 7
v -11 17 8
v -10 17 8
v -11 17 7
v -10 17 7
v -8 18 8
v -7 18 8
v 13 18 8
v 14 18 8
v -8 18 7
v -7 18 7
v 13 18 7
v 14 18 7
v -12 19 8
v -11 19 8
v 10 19 8
v 11 19 8
v 14 19 8
v 15 19 8
v -12 19 7
v -11 19 7
v 10 19 7
v 11 19 7
v 14 19 7
v 15 19 7
v -5 20 8
v -4 20 8
v 6 20 8
v 7 20 8
v 11 20 8
v 12 20 8
v -5 20 7
v -4 20 7
v 6 20 7
v 7 20 7
v 11 20 7
v 12 20 7
v -9 21 8
v -8 21 8
v -2 21 8
v -1 21 8
v 2 21 8
v 3 21 8
v 7 21 8
v 8 21 8
v 15 21 8
v 16 21 8
v -9 21 7
v -8 21 7
v -2 21 7
v -1 21 7
v 2 21 7
v 3 21 7
v 7 21 7
v 8 21 7
v 15 21 7
v 16 21 7
v 12 22 8
v 13 22 8
v 12 22 7
v 13 22 7
v -16 23 8
v -15 23 8
v -13 23 8
v -12 23 8
v -6 23 8
v -5 23 8
v 3 23 8
v 4 23 8
v 8 23 8
v 9 23 8
v 17 23 8
v 18 23 8
v -13 23 7
v -12 23 7
v -6 23 7
v -5 23 7
v 3 23 7
v 4 23 7
v 8 23 7
v 9 23 7
v -16 23 -5
v -15 23 -5
v 17 23 -5
v 18 23 -5
v -15 24 8
v -14 24 8
v -1 24 8
v 0 24 8
v 13 24 8
v 14 24 8
v -1 24 7
v 0 24 7
v 13 24 7
v 14 24 7
v -15 24 -5
v -14 24 -5
v -10 25 8
v -9 25 8
v 4 25 8
v 5 25 8
v 9 25 8
v 10 25 8
v 16 25 8
v 17 25 8
v -10 25 7
v -9 25 7
v 4 25 7
v 5 25 7
v 9 25 7
v 10 25 7
v 16 25 -5
v 17 25 -5
v -14 26 8
v -13 26 8
v 15 26 8
v 16 26 8
v -14 26 -5
v -13 26 -5
v 15 26 -5
v 16 26 -5
v -13 27 8
v -11 27 8
v 13 27 8
v 15 27 8
v -13 27 -5
v -11 27 -5
v 13 27 -5
v 15 27 -5
v -11 28 8
v 13 28 8
v -11 28 -5
v 13 28 -5

# faces
f 3/1/1 2/1/1 1/1/1
f 4/1/1 2/1/1 3/1/1
f 7/1/1 6/1/1 5/1/1
f 8/1/1 6/1/1 7/1/1
f 9/1/1 7/1/1 5/1/1
f 10/3/1 8/3/1 7/3/1
f 10/1/1 7/1/1 9/1/1
f 11/1/1 6/1/1 8/1/1
f 11/3/1 8/3/1 10/3/1
f 12/1/1 6/1/1 11/1/1
f 15/1/1 14/1/1 13/1/1
f 16/1/1 14/1/1 15/1/1
f 19/1/1 18/1/1 17/1/1
f 20/1/1 18/1/1 19/1/1
f 23/1/1 22/1/1 21/1/1
f 24/1/1 22/1/1 23/1/1
f 27/2/1 26/2/1 25/2/1
f 28/2/1 26/2/1 27/2/1
f 31/2/1 30/2/1 29/2/1
f 32/2/1 30/2/1 31/2/1
f 35/1/1 34/1/1 33/1/1
f 36/1/1 34/1/1 35/1/1
f 39/1/1 38/1/1 37/1/1
f 40/1/1 38/1/1 39/1/1
f 41/2/1 40/2/1 39/2/1
f 42/2/1 40/2/1 41/2/1
f 45/2/1 44/2/1 43/2/1
f 46/2/1 44/2/1 45/2/1
f 49/2/1 48/2/1 47/2/1
f 50/2/1 48/2/1 49/2/1
f 53/1/1 52/1/1 51/1/1
f 54/1/1 52/1/1 53/1/1
f 55/2/1 54/2/1 53/2/1
f 56/2/1 54/2/1 55/2/1
f 59/2/1 58/2/1 57/2/1
f 60/2/1 58/2/1 59/2/1
f 63/2/1 62/2/1 61/2/1
f 64/2/1 62/2/1 63/2/1
f 67/2/1 66/2/1 65/2/1
f 68/2/1 66/2/1 67/2/1
f 71/2/1 70/2/1 69/2/1
f 72/2/1 70/2/1 71/2/1
f 75/2/1 74/2/1 73/2/1
f 76/2/1 74/2/1 75/2/1
f 79/1/1 78/1/1 77/1/1
f 80/1/1 78/1/1 79/1/1
f 83/2/1 82/2/1 81/2/1
f 84/2/1 82/2/1 83/2/1
f 87/2/1 86/2/1 85/2/1
f 88/2/1 86/2/1 87/2/1
f 91/1/1 90/1/1 89/1/1
f 92/1/1 90/1/1 91/1/1
f 95/2/1 94/2/1 93/2/1
f 96/2/1 94/2/1 95/2/1
f 99/2/1 98/2/1 97/2/1
f 100/2/1 98/2/1 99/2/1
f 103/2/1 102/2/1 101/2/1
f 104/2/1 102/2/1 103/2/1
f 107/1/1 106/1/1 105/1/1
f 108/1/1 106/1/1 107/1/1
f 111/2/1 110/2/1 109/2/1
f 112/2/1 110/2/1 111/2/1
f 115/2/1 114/2/1 113/2/1
f 116/2/1 114/2/1 115/2/1
f 119/2/1 118/2/1 117/2/1
f 120/2/1 118/2/1 119/2/1
f 123/1/1 122/1/1 121/1/1
f 124/1/1 122/1/1 123/1/1
f 127/2/1 126/2/1 125/2/1
f 128/2/1 126/2/1 127/2/1
f 131/2/1 130/2/1 129/2/1
f 132/2/1 130/2/1 131/2/1
f 135/2/1 134/2/1 133/2/1
f 136/2/1 134/2/1 135/2/1
f 139/2/1 138/2/1 137/2/1
f 140/2/1 138/2/1 139/2/1
f 143/2/1 142/2/1 141/2/1
f 144/2/1 142/2/1 143/2/1
f 145/1/1 144/1/1 143/1/1
f 146/1/1 144/1/1 145/1/1
f 147/1/2 148/1/2 149/1/2
f 149/1/2 148/1/2 150/1/2
f 151/2/2 152/2/2 153/2/2
f 153/2/2 152/2/2 154/2/2
f 155/2/2 156/2/2 157/2/2
f 157/2/2 156/2/2 158/2/2
f 159/2/2 160/2/2 161/2/2
f 161/2/2 160/2/2 162/2/2
f 161/1/2 162/1/2 163/1/2
f 163/1/2 162/1/2 164/1/2
f 165/1/2 166/1/2 167/1/2
f 167/1/2 166/1/2 168/1/2
f 169/2/2 170/2/2 171/2/2
f 171/2/2 170/2/2 172/2/2
f 173/2/2 174/2/2 175/2/2
f 175/2/2 174/2/2 176/2/2
f 177/1/2 178/1/2 179/1/2
f 179/1/2 178/1/2 180/1/2
f 181/2/2 182/2/2 183/2/2
f 183/2/2 182/2/2 184/2/2
f 185/2/2 186/2/2 187/2/2
f 187/2/2 186/2/2 188/2/2
f 189/1/2 190/1/2 191/1/2
f 191/1/2 190/1/2 192/1/2
f 193/2/2 194/2/2 195/2/2
f 195/2/2 194/2/2 196/2/2
f 197/1/2 198/1/2 199/1/2
f 199/1/2 198/1/2 200/1/2
f 201/2/2 202/2/2 203/2/2
f 203/2/2 202/2/2 204/2/2
f 205/2/2 206/2/2 207/2/2
f 207/2/2 206/2/2 208/2/2
f 209/2/2 210/2/2 211/2/2
f 211/2/2 210/2/2 212/2/2
f 213/2/2 214/2/2 215/2/2
f 215/2/2 214/2/2 216/2/2
f 217/2/2 218/2/2 219/2/2
f 219/2/2 218/2/2 220/2/2
f 221/2/2 222/2/2 223/2/2
f 223/2/2 222/2/2 224/2/2
f 225/2/2 226/2/2 227/2/2
f 227/2/2 226/2/2 228/2/2
f 229/2/2 230/2/2 231/2/2
f 231/2/2 230/2/2 232/2/2
f 233/2/2 234/2/2 235/2/2
f 235/2/2 234/2/2 236/2/2
f 237/2/2 238/2/2 239/2/2
f 239/2/2 238/2/2 240/2/2
f 241/2/2 242/2/2 243/2/2
f 243/2/2 242/2/2 244/2/2
f 245/2/2 246/2/2 247/2/2
f 247/2/2 246/2/2 248/2/2
f 249/2/2 250/2/2 251/2/2
f 251/2/2 250/2/2 252/2/2
f 253/1/2 254/1/2 255/1/2
f 255/1/2 254/1/2 256/1/2
f 257/2/2 258/2/2 259/2/2
f 259/2/2 258/2/2 260/2/2
f 261/2/2 262/2/2 263/2/2
f 263/2/2 262/2/2 264/2/2
f 265/1/2 266/1/2 267/1/2
f 267/1/2 266/1/2 268/1/2
f 269/1/2 270/1/2 271/1/2
f 271/1/2 270/1/2 272/1/2
f 273/1/2 274/1/2 275/1/2
f 275/1/2 274/1/2 276/1/2
f 277/1/2 278/1/2 279/1/2
f 279/1/2 278/1/2 280/1/2
f 281/1/2 282/1/2 283/1/2
f 283/1/2 282/1/2 284/1/2
f 285/1/2 286/1/2 287/1/2
f 287/1/2 286/1/2 288/1/2
f 292/1/3 290/1/3 289/1/3
f 293/1/3 290/1/3 292/1/3
f 294/1/3 290/1/3 293/1/3
f 295/1/3 290/1/3 294/1/3
f 297/1/3 292/1/3 291/1/3
f 297/1/3 293/1/3 292/1/3
f 298/2/3 294/2/3 293/2/3
f 298/1/3 293/1/3 297/1/3
f 299/1/3 296/1/3 295/1/3
f 299/2/3 294/2/3 298/2/3
f 299/1/3 295/1/3 294/1/3
f 300/1/3 296/1/3 299/1/3
f 301/1/3 296/1/3 300/1/3
f 303/2/3 298/2/3 297/2/3
f 303/1/3 302/1/3 301/1/3
f 303/1/3 301/1/3 300/1/3
f 303/2/3 300/2/3 299/2/3
f 303/2/3 299/2/3 298/2/3
f 304/1/3 302/1/3 303/1/3
f 305/1/3 302/1/3 304/1/3
f 307/2/3 303/2/3 297/2/3
f 308/2/3 303/2/3 307/2/3
f 309/1/3 306/1/3 305/1/3
f 309/1/3 305/1/3 304/1/3
f 310/1/3 306/1/3 309/1/3
f 311/1/3 297/1/3 291/1/3
f 311/2/3 307/2/3 297/2/3
f 312/2/3 307/2/3 311/2/3
f 313/2/3 310/2/3 309/2/3
f 313/2/3 309/2/3 308/2/3
f 314/1/3 306/1/3 310/1/3
f 316/1/3 311/1/3 291/1/3
f 318/2/3 313/2/3 312/2/3
f 319/2/3 310/2/3 313/2/3
f 319/2/3 313/2/3 318/2/3
f 320/1/3 315/1/3 314/1/3
f 320/2/3 310/2/3 319/2/3
f 320/1/3 314/1/3 310/1/3
f 321/1/3 315/1/3 320/1/3
f 322/1/3 317/1/3 316/1/3
f 322/1/3 316/1/3 291/1/3
f 323/1/3 317/1/3 322/1/3
f 324/2/3 319/2/3 318/2/3
f 324/2/3 318/2/3 317/2/3
f 325/2/3 319/2/3 324/2/3
f 326/1/3 315/1/3 321/1/3
f 327/1/3 317/1/3 323/1/3
f 327/2/3 324/2/3 317/2/3
f 328/2/3 324/2/3 327/2/3
f 329/2/3 326/2/3 325/2/3
f 330/1/3 327/1/3 323/1/3
f 332/2/3 329/2/3 328/2/3
f 333/1/3 331/1/3 330/1/3
f 333/1/3 330/1/3 323/1/3
f 334/1/3 331/1/3 333/1/3
f 335/2/3 332/2/3 331/2/3
f 335/2/3 329/2/3 332/2/3
f 336/1/3 315/1/3 326/1/3
f 336/2/3 329/2/3 335/2/3
f 336/2/3 326/2/3 329/2/3
f 337/1/3 331/1/3 334/1/3
f 337/2/3 335/2/3 331/2/3
f 338/2/3 335/2/3 337/2/3
f 339/2/3 335/2/3 338/2/3
f 340/1/3 315/1/3 336/1/3
f 341/1/3 337/1/3 334/1/3
f 341/1/3 338/1/3 337/1/3
f 342/1/3 338/1/3 341/1/3
f 343/1/3 338/1/3 342/1/3
f 344/2/3 340/2/3 339/2/3
f 345/1/3 343/1/3 342/1/3
f 345/2/3 344/2/3 343/2/3
f 346/2/3 344/2/3 345/2/3
f 347/2/3 340/2/3 344/2/3
f 347/2/3 344/2/3 346/2/3
f 348/1/3 346/1/3 345/1/3
f 348/1/3 345/1/3 342/1/3
f 349/1/3 346/1/3 348/1/3
f 350/1/3 346/1/3 349/1/3
f 351/2/3 340/2/3 347/2/3
f 352/1/3 315/1/3 340/1/3
f 352/2/3 340/2/3 351/2/3
f 353/2/3 351/2/3 350/2/3
f 354/1/3 315/1/3 352/1/3
f 355/1/3 350/1/3 349/1/3
f 355/2/3 354/2/3 353/2/3
f 355/2/3 353/2/3 350/2/3
f 356/2/3 354/2/3 355/2/3
f 357/1/3 355/1/3 349/1/3
f 358/2/3 354/2/3 356/2/3
f 359/2/3 354/2/3 358/2/3
f 361/1/3 357/1/3 349/1/3
f 362/2/3 358/2/3 357/2/3
f 362/1/3 357/1/3 361/1/3
f 363/2/3 358/2/3 362/2/3
f 364/2/3 354/2/3 359/2/3
f 365/1/3 315/1/3 354/1/3
f 365/2/3 354/2/3 364/2/3
f 366/2/3 364/2/3 363/2/3
f 366/2/3 363/2/3 362/2/3
f 366/2/3 362/2/3 361/2/3
f 367/1/3 315/1/3 365/1/3
f 368/2/3 366/2/3 361/2/3
f 368/2/3 367/2/3 366/2/3
f 368/1/3 361/1/3 360/1/3
f 369/2/3 367/2/3 368/2/3
f 371/1/3 368/1/3 360/1/3
f 372/1/3 368/1/3 371/1/3
f 373/2/3 367/2/3 369/2/3
f 374/2/3 367/2/3 373/2/3
f 375/1/3 372/1/3 371/1/3
f 375/1/3 371/1/3 370/1/3
f 376/2/3 373/2/3 372/2/3
f 376/1/3 372/1/3 375/1/3
f 377/2/3 373/2/3 376/2/3
f 378/2/3 367/2/3 374/2/3
f 379/2/3 367/2/3 378/2/3
f 380/2/3 377/2/3 376/2/3
f 380/2/3 376/2/3 375/2/3
f 380/2/3 378/2/3 377/2/3
f 381/2/3 367/2/3 379/2/3
f 382/1/3 315/1/3 367/1/3
f 382/2/3 367/2/3 381/2/3
f 384/1/3 375/1/3 370/1/3
f 385/2/3 381/2/3 380/2/3
f 385/2/3 380/2/3 375/2/3
f 385/1/3 375/1/3 384/1/3
f 386/2/3 381/2/3 385/2/3
f 387/2/3 381/2/3 386/2/3
f 388/1/3 315/1/3 382/1/3
f 389/1/3 384/1/3 383/1/3
f 389/1/3 385/1/3 384/1/3
f 390/1/3 385/1/3 389/1/3
f 391/2/3 388/2/3 387/2/3
f 391/2/3 387/2/3 386/2/3
f 392/2/3 388/2/3 391/2/3
f 393/2/3 390/2/3 389/2/3
f 393/2/3 391/2/3 390/2/3
f 394/2/3 388/2/3 392/2/3
f 395/2/3 388/2/3 394/2/3
f 396/2/3 388/2/3 395/2/3
f 397/1/3 315/1/3 388/1/3
f 397/2/3 388/2/3 396/2/3
f 399/1/3 389/1/3 383/1/3
f 400/2/3 393/2/3 389/2/3
f 400/2/3 394/2/3 393/2/3
f 400/1/3 389/1/3 399/1/3
f 401/2/3 394/2/3 400/2/3
f 402/2/3 394/2/3 401/2/3
f 403/2/3 396/2/3 395/2/3
f 404/2/3 396/2/3 403/2/3
f 405/1/3 397/1/3 396/1/3
f 405/1/3 315/1/3 397/1/3
f 406/1/3 315/1/3 405/1/3
f 407/1/3 399/1/3 398/1/3
f 407/1/3 400/1/3 399/1/3
f 408/1/3 400/1/3 407/1/3
f 409/2/3 402/2/3 401/2/3
f 409/2/3 403/2/3 402/2/3
f 410/2/3 403/2/3 409/2/3
f 411/2/3 403/2/3 410/2/3
f 412/2/3 396/2/3 404/2/3
f 413/1/3 405/1/3 396/1/3
f 413/2/3 396/2/3 412/2/3
f 414/2/3 408/2/3 407/2/3
f 414/1/3 407/1/3 398/1/3
f 414/2/3 409/2/3 408/2/3
f 415/2/3 409/2/3 414/2/3
f 416/2/3 409/2/3 415/2/3
f 417/2/3 411/2/3 410/2/3
f 417/2/3 412/2/3 411/2/3
f 418/2/3 412/2/3 417/2/3
f 419/2/3 412/2/3 418/2/3
f 420/1/3 413/1/3 412/1/3
f 420/2/3 412/2/3 419/2/3
f 421/1/3 405/1/3 413/1/3
f 421/1/3 413/1/3 420/1/3
f 422/1/3 405/1/3 421/1/3
f 423/1/3 415/1/3 414/1/3
f 423/1/3 414/1/3 398/1/3
f 424/1/3 415/1/3 423/1/3
f 425/2/3 416/2/3 415/2/3
f 425/1/3 415/1/3 424/1/3
f 425/2/3 417/2/3 416/2/3
f 426/2/3 417/2/3 425/2/3
f 427/2/3 417/2/3 426/2/3
f 429/2/3 419/2/3 418/2/3
f 430/1/3 420/1/3 419/1/3
f 430/1/3 421/1/3 420/1/3
f 430/2/3 419/2/3 429/2/3
f 431/1/3 421/1/3 430/1/3
f 432/1/3 421/1/3 431/1/3
f 433/1/3 425/1/3 424/1/3
f 433/1/3 426/1/3 425/1/3
f 434/1/3 426/1/3 433/1/3
f 435/2/3 428/2/3 427/2/3
f 435/1/3 426/1/3 434/1/3
f 435/2/3 427/2/3 426/2/3
f 436/1/3 429/1/3 428/1/3
f 436/2/3 428/2/3 435/2/3
f 436/1/3 431/1/3 430/1/3
f 436/1/3 430/1/3 429/1/3
f 437/1/3 431/1/3 436/1/3
f 438/1/3 431/1/3 437/1/3
f 439/1/3 435/1/3 434/1/3
f 439/1/3 437/1/3 436/1/3
f 439/1/3 436/1/3 435/1/3
f 440/1/3 437/1/3 439/1/3
f 444/5/3 442/5/3 441/5/3
f 445/5/3 442/5/3 444/5/3
f 447/5/3 444/5/3 443/5/3
f 448/5/3 444/5/3 447/5/3
f 449/5/3 447/5/3 446/5/3
f 450/5/3 447/5/3 449/5/3
f 451/5/3 447/5/3 450/5/3
f 456/5/3 454/5/3 453/5/3
f 456/5/3 453/5/3 452/5/3
f 457/5/3 454/5/3 456/5/3
f 459/5/3 456/5/3 455/5/3
f 460/5/3 456/5/3 459/5/3
f 461/5/3 459/5/3 458/5/3
f 462/5/3 459/5/3 461/5/3
f 463/5/3 459/5/3 462/5/3
f 467/5/3 465/5/3 464/5/3
f 468/5/3 465/5/3 467/5/3
f 469/5/3 467/5/3 466/5/3
f 470/5/3 467/5/3 469/5/3
f 473/5/3 472/5/3 471/5/3
f 474/5/3 472/5/3 473/5/3
f 476/5/3 475/5/3 474/5/3
f 477/5/3 475/5/3 476/5/3
f 480/5/3 479/5/3 478/5/3
f 481/5/3 479/5/3 480/5/3
f 483/5/3 482/5/3 481/5/3
f 484/5/3 482/5/3 483/5/3
f 486/5/3 485/5/3 484/5/3
f 487/5/3 485/5/3 486/5/3
f 490/5/3 489/5/3 488/5/3
f 491/5/3 489/5/3 490/5/3
f 493/5/3 492/5/3 491/5/3
f 494/5/3 492/5/3 493/5/3
f 496/5/3 495/5/3 494/5/3
f 497/5/3 495/5/3 496/5/3
f 501/5/3 498/5/3 497/5/3
f 502/5/3 498/5/3 501/5/3
f 503/5/3 500/5/3 499/5/3
f 504/5/3 500/5/3 503/5/3
f 506/5/3 505/5/3 504/5/3
f 507/5/3 505/5/3 506/5/3
f 511/5/3 508/5/3 507/5/3
f 512/5/3 508/5/3 511/5/3
f 514/5/3 510/5/3 509/5/3
f 515/5/3 510/5/3 514/5/3
f 517/5/3 513/5/3 512/5/3
f 518/5/3 513/5/3 517/5/3
f 519/5/3 516/5/3 515/5/3
f 520/5/3 516/5/3 519/5/3
f 522/5/3 521/5/3 520/5/3
f 523/5/3 521/5/3 522/5/3
f 524/5/3 521/5/3 523/5/3
f 525/1/4 526/1/4 528/1/4
f 528/1/4 526/1/4 529/1/4
f 527/1/4 528/1/4 531/1/4
f 529/1/4 530/1/4 531/1/4
f 528/1/4 529/1/4 531/1/4
f 531/1/4 532/1/4 533/1/4
f 533/1/4 534/1/4 535/1/4
f 527/1/4 531/1/4 537/1/4
f 535/1/4 536/1/4 537/1/4
f 533/1/4 535/1/4 537/1/4
f 531/1/4 533/1/4 537/1/4
f 537/1/4 536/1/4 538/1/4
f 538/1/4 536/1/4 539/1/4
f 539/1/4 536/1/4 540/1/4
f 540/1/4 536/1/4 541/1/4
f 541/1/4 536/1/4 542/1/4
f 542/1/4 536/1/4 543/1/4
f 543/1/4 536/1/4 544/1/4
f 544/1/4 536/1/4 546/1/4
f 545/1/4 546/1/4 548/1/4
f 547/1/4 548/1/4 550/1/4
f 549/1/4 550/1/4 552/1/4
f 546/1/4 536/1/4 553/1/4
f 548/1/4 546/1/4 553/1/4
f 552/1/4 550/1/4 553/1/4
f 550/1/4 548/1/4 553/1/4
f 553/1/4 536/1/4 554/1/4
f 551/1/4 552/1/4 555/1/4
f 552/1/4 553/1/4 555/1/4
f 555/1/4 553/1/4 556/1/4
f 551/1/4 555/1/4 557/1/4
f 557/1/4 555/1/4 558/1/4
f 558/1/4 555/1/4 559/1/4
f 559/1/4 555/1/4 560/1/4
f 558/1/4 559/1/4 561/1/4
f 561/1/4 559/1/4 562/1/4
f 562/1/4 559/1/4 563/1/4
f 563/1/4 559/1/4 564/1/4
f 562/1/4 563/1/4 565/1/4
f 565/1/4 563/1/4 566/1/4
f 571/1/5 568/1/5 567/1/5
f 572/1/5 568/1/5 571/1/5
f 573/1/5 570/1/5 569/1/5
f 574/1/5 570/1/5 573/1/5
f 581/1/5 576/1/5 575/1/5
f 582/1/5 576/1/5 581/1/5
f 583/1/5 578/1/5 577/1/5
f 584/1/5 578/1/5 583/1/5
f 585/1/5 580/1/5 579/1/5
f 586/1/5 580/1/5 585/1/5
f 595/1/5 588/1/5 587/1/5
f 596/1/5 595/1/5 587/1/5
f 597/1/5 596/1/5 587/1/5
f 598/1/5 596/1/5 597/1/5
f 599/1/5 590/1/5 589/1/5
f 600/1/5 590/1/5 599/1/5
f 601/1/5 592/1/5 591/1/5
f 602/1/5 592/1/5 601/1/5
f 603/1/5 594/1/5 593/1/5
f 604/1/5 594/1/5 603/1/5
f 613/2/5 606/2/5 605/2/5
f 614/2/5 606/2/5 613/2/5
f 615/2/5 612/2/5 611/2/5
f 616/2/5 612/2/5 615/2/5
f 617/1/5 608/1/5 607/1/5
f 618/1/5 608/1/5 617/1/5
f 619/1/5 610/1/5 609/1/5
f 620/1/5 610/1/5 619/1/5
f 625/2/5 624/2/5 623/2/5
f 626/2/5 624/2/5 625/2/5
f 627/1/5 622/1/5 621/1/5
f 628/1/5 622/1/5 627/1/5
f 635/2/5 630/2/5 629/2/5
f 636/2/5 630/2/5 635/2/5
f 637/2/5 632/2/5 631/2/5
f 638/2/5 632/2/5 637/2/5
f 639/2/5 634/2/5 633/2/5
f 640/2/5 634/2/5 639/2/5
f 643/2/5 642/2/5 641/2/5
f 644/2/5 642/2/5 643/2/5
f 655/2/5 646/2/5 645/2/5
f 656/2/5 646/2/5 655/2/5
f 657/2/5 648/2/5 647/2/5
f 658/2/5 648/2/5 657/2/5
f 659/2/5 650/2/5 649/2/5
f 660/2/5 650/2/5 659/2/5
f 661/2/5 652/2/5 651/2/5
f 662/2/5 652/2/5 661/2/5
f 663/2/5 654/2/5 653/2/5
f 664/2/5 654/2/5 663/2/5
f 669/2/5 666/2/5 665/2/5
f 670/2/5 666/2/5 669/2/5
f 671/2/5 668/2/5 667/2/5
f 672/2/5 668/2/5 671/2/5
f 683/1/5 674/1/5 673/1/5
f 684/1/5 674/1/5 683/1/5
f 685/2/5 676/2/5 675/2/5
f 686/2/5 676/2/5 685/2/5
f 687/2/5 678/2/5 677/2/5
f 688/2/5 678/2/5 687/2/5
f 689/2/5 680/2/5 679/2/5
f 690/2/5 680/2/5 689/2/5
f 691/2/5 682/2/5 681/2/5
f 692/2/5 682/2/5 691/2/5
f 703/1/5 694/1/5 693/1/5
f 704/1/5 694/1/5 703/1/5
f 705/1/5 696/1/5 695/1/5
f 706/1/5 696/1/5 705/1/5
f 707/1/5 698/1/5 697/1/5
f 708/1/5 698/1/5 707/1/5
f 709/1/5 700/1/5 699/1/5
f 710/1/5 700/1/5 709/1/5
f 711/1/5 702/1/5 701/1/5
f 712/1/5 702/1/5 711/1/5
f 713/1/6 714/1/6 715/1/6
f 715/1/6 714/1/6 716/1/6
f 717/1/6 718/1/6 721/1/6
f 721/1/6 718/1/6 722/1/6
f 719/1/6 720/1/6 723/1/6
f 723/1/6 720/1/6 724/1/6
f 725/2/6 726/2/6 731/2/6
f 731/2/6 726/2/6 732/2/6
f 727/1/6 728/1/6 733/1/6
f 733/1/6 728/1/6 734/1/6
f 729/2/6 730/2/6 735/2/6
f 735/2/6 730/2/6 736/2/6
f 737/1/6 738/1/6 743/1/6
f 743/1/6 738/1/6 744/1/6
f 739/1/6 740/1/6 745/1/6
f 745/1/6 740/1/6 746/1/6
f 741/2/6 742/2/6 747/2/6
f 747/2/6 742/2/6 748/2/6
f 749/2/6 750/2/6 759/2/6
f 759/2/6 750/2/6 760/2/6
f 751/1/6 752/1/6 761/1/6
f 761/1/6 752/1/6 762/1/6
f 753/1/6 754/1/6 763/1/6
f 763/1/6 754/1/6 764/1/6
f 755/2/6 756/2/6 765/2/6
f 765/2/6 756/2/6 766/2/6
f 757/2/6 758/2/6 767/2/6
f 767/2/6 758/2/6 768/2/6
f 769/2/6 770/2/6 771/2/6
f 771/2/6 770/2/6 772/2/6
f 775/2/6 776/2/6 785/2/6
f 785/2/6 776/2/6 786/2/6
f 777/2/6 778/2/6 787/2/6
f 787/2/6 778/2/6 788/2/6
f 779/2/6 780/2/6 789/2/6
f 789/2/6 780/2/6 790/2/6
f 781/2/6 782/2/6 791/2/6
f 791/2/6 782/2/6 792/2/6
f 773/1/6 774/1/6 793/1/6
f 793/1/6 774/1/6 794/1/6
f 783/1/6 784/1/6 795/1/6
f 795/1/6 784/1/6 796/1/6
f 799/2/6 800/2/6 803/2/6
f 803/2/6 800/2/6 804/2/6
f 801/2/6 802/2/6 805/2/6
f 805/2/6 802/2/6 806/2/6
f 797/1/6 798/1/6 807/1/6
f 807/1/6 798/1/6 808/1/6
f 809/2/6 810/2/6 817/2/6
f 817/2/6 810/2/6 818/2/6
f 811/2/6 812/2/6 819/2/6
f 819/2/6 812/2/6 820/2/6
f 813/2/6 814/2/6 821/2/6
f 821/2/6 814/2/6 822/2/6
f 815/1/6 816/1/6 823/1/6
f 823/1/6 816/1/6 824/1/6
f 825/1/6 826/1/6 829/1/6
f 829/1/6 826/1/6 830/1/6
f 827/1/6 828/1/6 831/1/6
f 831/1/6 828/1/6 832/1/6
f 833/1/6 834/1/6 837/1/6
f 837/1/6 834/1/6 838/1/6
f 835/1/6 836/1/6 839/1/6
f 839/1/6 836/1/6 840/1/6
f 841/1/6 842/1/6 843/1/6
f 843/1/6 842/1/6 844/1/6
