# MagicaVoxel @ Ephtracy

# group
g jambes bleu

# material
mtllib jambes bleu.mtl
usemtl palette

# normals
vn -1 0 0
vn 1 0 0
vn 0 0 1
vn 0 0 -1
vn 0 -1 0
vn 0 1 0

# texcoords
vt 0.0292969 0.5
vt 0.568359 0.5
vt 0.841797 0.5
vt 0.958984 0.5

# verts
v -4 0 -15
v -4 0 -18
v -4 1 -14
v -4 1 -15
v -4 1 -18
v -4 1 -19
v -4 5 -13
v -4 5 -14
v -4 5 -19
v -4 5 -20
v -4 12 -13
v -4 12 -14
v -4 12 -16
v -4 12 -17
v -4 13 -14
v -4 13 -16
v -4 13 -17
v -4 13 -19
v -4 13 -20
v -4 14 -14
v -4 14 -19
v -3 0 -14
v -3 0 -15
v -3 0 -18
v -3 0 -19
v -3 1 -14
v -3 1 -15
v -3 1 -18
v -3 1 -19
v -3 4 -13
v -3 4 -14
v -3 4 -19
v -3 4 -20
v -3 5 -13
v -3 5 -14
v -3 5 -19
v -3 5 -20
v -3 12 -13
v -3 12 -14
v -3 13 -13
v -3 13 -14
v -3 13 -19
v -3 13 -20
v -3 14 -13
v -3 14 -14
v -3 14 -19
v -3 14 -20
v -1 14 -15
v -1 14 -17
v -1 16 -15
v -1 16 -16
v -1 17 -15
v -1 17 -16
v -1 18 -14
v -1 18 -15
v -1 19 -16
v -1 19 -17
v -1 19 -18
v -1 20 -14
v -1 20 -16
v -1 20 -17
v -1 20 -18
v 1 4 -13
v 1 4 -14
v 1 4 -19
v 1 4 -20
v 1 5 -13
v 1 5 -14
v 1 5 -19
v 1 5 -20
v 1 13 -13
v 1 13 -14
v 1 13 -19
v 1 13 -20
v 1 14 -13
v 1 14 -14
v 1 14 -15
v 1 14 -17
v 1 14 -19
v 1 14 -20
v 1 18 -15
v 1 18 -16
v 1 18 -17
v 2 3 -14
v 2 3 -19
v 2 5 -13
v 2 5 -14
v 2 5 -19
v 2 5 -20
v 2 11 -15
v 2 11 -17
v 2 12 -15
v 2 12 -16
v 2 12 -19
v 2 12 -20
v 2 13 -13
v 2 13 -14
v 2 13 -16
v 2 13 -17
v 2 13 -19
v 2 13 -20
v 2 14 -14
v 2 14 -19
v 2 18 -14
v 2 18 -16
v 2 18 -17
v 2 19 -14
v 2 19 -15
v 2 19 -17
v 2 19 -18
v 2 20 -14
v 2 20 -15
v 2 20 -16
v 2 20 -17
v 2 20 -18
v 6 0 -14
v 6 0 -19
v 6 1 -14
v 6 1 -19
v 7 1 -14
v 7 1 -19
v 7 2 -14
v 7 2 -15
v 7 2 -16
v 7 2 -19
v 7 3 -14
v 7 3 -15
v 7 3 -16
v 7 3 -19
v -4 5 -13
v -4 12 -13
v -3 4 -13
v -3 5 -13
v -3 12 -13
v -3 13 -13
v -3 14 -13
v -2 11 -13
v -2 13 -13
v -1 11 -13
v -1 14 -13
v 1 4 -13
v 1 5 -13
v 1 13 -13
v 1 14 -13
v 2 5 -13
v 2 13 -13
v -4 1 -14
v -4 5 -14
v -4 12 -14
v -4 13 -14
v -4 14 -14
v -3 0 -14
v -3 1 -14
v -3 4 -14
v -3 5 -14
v -3 12 -14
v -3 13 -14
v -3 14 -14
v -1 18 -14
v -1 20 -14
v 1 4 -14
v 1 5 -14
v 1 13 -14
v 1 14 -14
v 1 19 -14
v 1 20 -14
v 2 3 -14
v 2 5 -14
v 2 13 -14
v 2 14 -14
v 2 18 -14
v 2 19 -14
v 2 20 -14
v 6 0 -14
v 6 1 -14
v 6 2 -14
v 6 3 -14
v 7 1 -14
v 7 2 -14
v 7 3 -14
v -4 0 -15
v -4 1 -15
v -3 0 -15
v -3 1 -15
v -1 14 -15
v -1 16 -15
v -1 17 -15
v -1 18 -15
v 0 16 -15
v 0 17 -15
v 1 14 -15
v 1 18 -15
v -1 14 -17
v -1 19 -17
v 1 14 -17
v 1 18 -17
v 1 19 -17
v 2 18 -17
v 2 19 -17
v -4 0 -18
v -4 1 -18
v -3 0 -18
v -3 1 -18
v -1 19 -18
v -1 20 -18
v 2 19 -18
v 2 20 -18
v -4 1 -19
v -4 5 -19
v -4 13 -19
v -4 14 -19
v -3 0 -19
v -3 1 -19
v -3 4 -19
v -3 5 -19
v -3 13 -19
v -3 14 -19
v 1 4 -19
v 1 5 -19
v 1 13 -19
v 1 14 -19
v 2 3 -19
v 2 5 -19
v 2 13 -19
v 2 14 -19
v 6 0 -19
v 6 1 -19
v 6 2 -19
v 6 3 -19
v 7 1 -19
v 7 2 -19
v 7 3 -19
v -4 5 -20
v -4 13 -20
v -3 4 -20
v -3 5 -20
v -3 13 -20
v -3 14 -20
v -2 13 -20
v -2 14 -20
v -1 12 -20
v -1 13 -20
v 0 12 -20
v 0 14 -20
v 1 4 -20
v 1 5 -20
v 1 12 -20
v 1 13 -20
v 1 14 -20
v 2 5 -20
v 2 12 -20
v 2 13 -20
v -3 0 -14
v 6 0 -14
v -4 0 -15
v -3 0 -15
v -4 0 -18
v -3 0 -18
v -3 0 -19
v 6 0 -19
v -4 1 -14
v -3 1 -14
v 6 1 -14
v 7 1 -14
v -4 1 -15
v -3 1 -15
v -4 1 -18
v -3 1 -18
v -4 1 -19
v -3 1 -19
v 6 1 -19
v 7 1 -19
v -3 4 -13
v 1 4 -13
v -3 4 -14
v 1 4 -14
v -3 4 -19
v 1 4 -19
v -3 4 -20
v 1 4 -20
v -4 5 -13
v -3 5 -13
v 1 5 -13
v 2 5 -13
v -4 5 -14
v -3 5 -14
v 1 5 -14
v 2 5 -14
v -4 5 -19
v -3 5 -19
v 1 5 -19
v 2 5 -19
v -4 5 -20
v -3 5 -20
v 1 5 -20
v 2 5 -20
v -1 18 -14
v 2 18 -14
v -1 18 -15
v 1 18 -15
v 1 18 -16
v 2 18 -16
v 1 18 -17
v 2 18 -17
v -1 19 -17
v 1 19 -17
v 2 19 -17
v -1 19 -18
v 2 19 -18
v 2 3 -14
v 6 3 -14
v 7 3 -14
v 6 3 -15
v 7 3 -15
v 6 3 -16
v 7 3 -16
v 2 3 -19
v 6 3 -19
v 7 3 -19
v -4 12 -13
v -3 12 -13
v -4 12 -14
v -3 12 -14
v 1 13 -13
v 2 13 -13
v 1 13 -14
v 2 13 -14
v -4 13 -19
v -3 13 -19
v 1 13 -19
v 2 13 -19
v -4 13 -20
v -3 13 -20
v 1 13 -20
v 2 13 -20
v -3 14 -13
v -1 14 -13
v 1 14 -13
v -4 14 -14
v -3 14 -14
v -1 14 -14
v 1 14 -14
v 2 14 -14
v -1 14 -15
v 1 14 -15
v -1 14 -17
v 1 14 -17
v -4 14 -19
v -3 14 -19
v -2 14 -19
v 0 14 -19
v 1 14 -19
v 2 14 -19
v -3 14 -20
v -2 14 -20
v 0 14 -20
v 1 14 -20
v -1 20 -14
v 1 20 -14
v 2 20 -14
v 1 20 -15
v 2 20 -15
v -1 20 -16
v 0 20 -16
v 1 20 -16
v 2 20 -16
v -1 20 -17
v 0 20 -17
v 1 20 -17
v 2 20 -17
v -1 20 -18
v 2 20 -18

# faces
f 4/2/1 2/2/1 1/2/1
f 5/2/1 2/2/1 4/2/1
f 8/2/1 4/2/1 3/2/1
f 8/2/1 6/2/1 5/2/1
f 8/2/1 5/2/1 4/2/1
f 9/2/1 6/2/1 8/2/1
f 11/2/1 8/2/1 7/2/1
f 11/2/1 10/2/1 9/2/1
f 11/2/1 9/2/1 8/2/1
f 12/2/1 10/2/1 11/2/1
f 13/2/1 10/2/1 12/2/1
f 14/2/1 10/2/1 13/2/1
f 15/2/1 13/2/1 12/2/1
f 16/3/1 14/3/1 13/3/1
f 16/2/1 13/2/1 15/2/1
f 17/2/1 10/2/1 14/2/1
f 17/3/1 14/3/1 16/3/1
f 18/2/1 10/2/1 17/2/1
f 19/2/1 10/2/1 18/2/1
f 20/3/1 16/3/1 15/3/1
f 20/3/1 17/3/1 16/3/1
f 20/3/1 18/3/1 17/3/1
f 21/3/1 18/3/1 20/3/1
f 26/2/1 23/2/1 22/2/1
f 27/2/1 23/2/1 26/2/1
f 28/2/1 25/2/1 24/2/1
f 29/2/1 25/2/1 28/2/1
f 34/2/1 31/2/1 30/2/1
f 35/2/1 31/2/1 34/2/1
f 36/2/1 33/2/1 32/2/1
f 37/2/1 33/2/1 36/2/1
f 40/2/1 39/2/1 38/2/1
f 41/2/1 39/2/1 40/2/1
f 44/3/1 41/3/1 40/3/1
f 45/3/1 41/3/1 44/3/1
f 46/2/1 43/2/1 42/2/1
f 47/2/1 43/2/1 46/2/1
f 50/4/1 49/4/1 48/4/1
f 51/4/1 49/4/1 50/4/1
f 52/3/1 51/3/1 50/3/1
f 53/4/1 49/4/1 51/4/1
f 53/3/1 51/3/1 52/3/1
f 55/4/1 53/4/1 52/4/1
f 56/4/1 49/4/1 53/4/1
f 56/4/1 55/4/1 54/4/1
f 56/4/1 53/4/1 55/4/1
f 57/4/1 49/4/1 56/4/1
f 59/4/1 56/4/1 54/4/1
f 60/3/1 57/3/1 56/3/1
f 60/4/1 56/4/1 59/4/1
f 61/4/1 58/4/1 57/4/1
f 61/3/1 57/3/1 60/3/1
f 62/4/1 58/4/1 61/4/1
f 63/2/2 64/2/2 67/2/2
f 67/2/2 64/2/2 68/2/2
f 65/2/2 66/2/2 69/2/2
f 69/2/2 66/2/2 70/2/2
f 71/2/2 72/2/2 75/2/2
f 75/2/2 72/2/2 76/2/2
f 73/2/2 74/2/2 79/2/2
f 79/2/2 74/2/2 80/2/2
f 77/4/2 78/4/2 81/4/2
f 81/4/2 78/4/2 82/4/2
f 82/4/2 78/4/2 83/4/2
f 84/2/2 85/2/2 87/2/2
f 87/2/2 85/2/2 88/2/2
f 86/2/2 87/2/2 90/2/2
f 88/2/2 89/2/2 90/2/2
f 87/2/2 88/2/2 90/2/2
f 90/2/2 89/2/2 91/2/2
f 86/2/2 90/2/2 92/2/2
f 90/3/2 91/3/2 92/3/2
f 92/3/2 91/3/2 93/3/2
f 91/2/2 89/2/2 94/2/2
f 94/2/2 89/2/2 95/2/2
f 86/2/2 92/2/2 96/2/2
f 92/2/2 93/2/2 96/2/2
f 96/2/2 93/2/2 97/2/2
f 93/3/2 91/3/2 98/3/2
f 97/2/2 93/2/2 98/2/2
f 91/2/2 94/2/2 99/2/2
f 98/3/2 91/3/2 99/3/2
f 94/3/2 95/3/2 100/3/2
f 99/2/2 94/2/2 100/2/2
f 100/3/2 95/3/2 101/3/2
f 98/3/2 99/3/2 102/3/2
f 99/3/2 100/3/2 102/3/2
f 97/3/2 98/3/2 102/3/2
f 102/3/2 100/3/2 103/3/2
f 104/4/2 105/4/2 107/4/2
f 107/4/2 105/4/2 108/4/2
f 105/3/2 106/3/2 109/3/2
f 107/3/2 108/3/2 111/3/2
f 108/4/2 105/4/2 112/4/2
f 111/3/2 108/3/2 112/3/2
f 105/3/2 109/3/2 113/3/2
f 112/4/2 105/4/2 113/4/2
f 109/4/2 110/4/2 114/4/2
f 113/3/2 109/3/2 114/3/2
f 114/4/2 110/4/2 115/4/2
f 116/2/2 117/2/2 118/2/2
f 118/2/2 117/2/2 119/2/2
f 120/2/2 121/2/2 122/2/2
f 122/2/2 121/2/2 123/2/2
f 123/2/2 121/2/2 124/2/2
f 124/2/2 121/2/2 125/2/2
f 122/4/2 123/4/2 126/4/2
f 123/2/2 124/2/2 127/2/2
f 126/4/2 123/4/2 127/4/2
f 124/4/2 125/4/2 128/4/2
f 127/2/2 124/2/2 128/2/2
f 128/4/2 125/4/2 129/4/2
f 133/2/3 131/2/3 130/2/3
f 134/2/3 131/2/3 133/2/3
f 137/2/3 133/2/3 132/2/3
f 137/2/3 134/2/3 133/2/3
f 137/2/3 135/2/3 134/2/3
f 138/3/3 136/3/3 135/3/3
f 138/2/3 135/2/3 137/2/3
f 139/2/3 137/2/3 132/2/3
f 139/3/3 138/3/3 137/3/3
f 140/3/3 136/3/3 138/3/3
f 140/3/3 138/3/3 139/3/3
f 141/2/3 139/2/3 132/2/3
f 141/2/3 140/2/3 139/2/3
f 142/2/3 140/2/3 141/2/3
f 143/2/3 140/2/3 142/2/3
f 144/2/3 140/2/3 143/2/3
f 145/2/3 143/2/3 142/2/3
f 146/2/3 143/2/3 145/2/3
f 153/2/3 148/2/3 147/2/3
f 154/2/3 148/2/3 153/2/3
f 155/2/3 148/2/3 154/2/3
f 156/2/3 150/2/3 149/2/3
f 157/3/3 151/3/3 150/3/3
f 157/2/3 150/2/3 156/2/3
f 158/3/3 151/3/3 157/3/3
f 161/2/3 154/2/3 153/2/3
f 161/2/3 153/2/3 152/2/3
f 165/4/3 160/4/3 159/4/3
f 166/4/3 160/4/3 165/4/3
f 167/2/3 161/2/3 152/2/3
f 167/2/3 162/2/3 161/2/3
f 168/2/3 162/2/3 167/2/3
f 169/3/3 164/3/3 163/3/3
f 170/3/3 164/3/3 169/3/3
f 171/4/3 165/4/3 159/4/3
f 172/3/3 166/3/3 165/3/3
f 172/4/3 165/4/3 171/4/3
f 173/3/3 166/3/3 172/3/3
f 174/2/3 167/2/3 152/2/3
f 175/2/3 167/2/3 174/2/3
f 176/2/3 167/2/3 175/2/3
f 177/2/3 167/2/3 176/2/3
f 178/2/3 176/2/3 175/2/3
f 179/4/3 177/4/3 176/4/3
f 179/2/3 176/2/3 178/2/3
f 180/4/3 177/4/3 179/4/3
f 183/2/3 182/2/3 181/2/3
f 184/2/3 182/2/3 183/2/3
f 189/4/3 186/4/3 185/4/3
f 189/3/3 187/3/3 186/3/3
f 190/4/3 188/4/3 187/4/3
f 190/3/3 187/3/3 189/3/3
f 191/4/3 189/4/3 185/4/3
f 191/4/3 190/4/3 189/4/3
f 192/4/3 188/4/3 190/4/3
f 192/4/3 190/4/3 191/4/3
f 193/4/4 194/4/4 195/4/4
f 195/4/4 194/4/4 196/4/4
f 196/4/4 194/4/4 197/4/4
f 196/3/4 197/3/4 198/3/4
f 198/3/4 197/3/4 199/3/4
f 200/2/4 201/2/4 202/2/4
f 202/2/4 201/2/4 203/2/4
f 204/4/4 205/4/4 206/4/4
f 206/4/4 205/4/4 207/4/4
f 208/2/4 209/2/4 213/2/4
f 213/2/4 209/2/4 214/2/4
f 214/2/4 209/2/4 215/2/4
f 210/3/4 211/3/4 216/3/4
f 216/3/4 211/3/4 217/3/4
f 212/2/4 213/2/4 218/2/4
f 213/2/4 214/2/4 218/2/4
f 212/2/4 218/2/4 222/2/4
f 218/2/4 219/2/4 222/2/4
f 222/2/4 219/2/4 223/2/4
f 220/3/4 221/3/4 224/3/4
f 224/3/4 221/3/4 225/3/4
f 212/2/4 222/2/4 226/2/4
f 226/2/4 222/2/4 227/2/4
f 227/2/4 222/2/4 228/2/4
f 228/2/4 222/2/4 229/2/4
f 227/2/4 228/2/4 230/2/4
f 228/4/4 229/4/4 231/4/4
f 230/2/4 228/2/4 231/2/4
f 231/4/4 229/4/4 232/4/4
f 233/2/4 234/2/4 236/2/4
f 236/2/4 234/2/4 237/2/4
f 235/2/4 236/2/4 239/2/4
f 237/2/4 238/2/4 239/2/4
f 236/2/4 237/2/4 239/2/4
f 239/2/4 238/2/4 240/2/4
f 235/2/4 239/2/4 241/2/4
f 239/3/4 240/3/4 242/3/4
f 241/2/4 239/2/4 242/2/4
f 235/2/4 241/2/4 243/2/4
f 241/3/4 242/3/4 243/3/4
f 242/3/4 240/3/4 244/3/4
f 243/3/4 242/3/4 244/3/4
f 235/2/4 243/2/4 245/2/4
f 243/2/4 244/2/4 245/2/4
f 245/2/4 244/2/4 246/2/4
f 246/2/4 244/2/4 247/2/4
f 247/2/4 244/2/4 248/2/4
f 248/2/4 244/2/4 249/2/4
f 246/2/4 247/2/4 250/2/4
f 247/3/4 248/3/4 251/3/4
f 250/2/4 247/2/4 251/2/4
f 251/3/4 248/3/4 252/3/4
f 256/2/5 254/2/5 253/2/5
f 257/2/5 256/2/5 255/2/5
f 258/2/5 254/2/5 256/2/5
f 258/2/5 256/2/5 257/2/5
f 259/2/5 254/2/5 258/2/5
f 260/2/5 254/2/5 259/2/5
f 265/2/5 262/2/5 261/2/5
f 266/2/5 262/2/5 265/2/5
f 269/2/5 268/2/5 267/2/5
f 270/2/5 268/2/5 269/2/5
f 271/2/5 264/2/5 263/2/5
f 272/2/5 264/2/5 271/2/5
f 275/2/5 274/2/5 273/2/5
f 276/2/5 274/2/5 275/2/5
f 279/2/5 278/2/5 277/2/5
f 280/2/5 278/2/5 279/2/5
f 285/2/5 282/2/5 281/2/5
f 286/2/5 282/2/5 285/2/5
f 287/2/5 284/2/5 283/2/5
f 288/2/5 284/2/5 287/2/5
f 293/2/5 290/2/5 289/2/5
f 294/2/5 290/2/5 293/2/5
f 295/2/5 292/2/5 291/2/5
f 296/2/5 292/2/5 295/2/5
f 299/4/5 298/4/5 297/4/5
f 300/4/5 298/4/5 299/4/5
f 301/4/5 298/4/5 300/4/5
f 302/4/5 298/4/5 301/4/5
f 303/3/5 302/3/5 301/3/5
f 304/3/5 302/3/5 303/3/5
f 308/4/5 306/4/5 305/4/5
f 308/4/5 307/4/5 306/4/5
f 309/4/5 307/4/5 308/4/5
f 310/2/6 311/2/6 313/2/6
f 311/4/6 312/4/6 313/4/6
f 313/4/6 312/4/6 314/4/6
f 310/2/6 313/2/6 315/2/6
f 313/2/6 314/2/6 315/2/6
f 315/2/6 314/2/6 316/2/6
f 310/2/6 315/2/6 317/2/6
f 315/4/6 316/4/6 318/4/6
f 317/2/6 315/2/6 318/2/6
f 318/4/6 316/4/6 319/4/6
f 320/2/6 321/2/6 322/2/6
f 322/2/6 321/2/6 323/2/6
f 324/2/6 325/2/6 326/2/6
f 326/2/6 325/2/6 327/2/6
f 328/2/6 329/2/6 332/2/6
f 332/2/6 329/2/6 333/2/6
f 330/3/6 331/3/6 334/3/6
f 334/3/6 331/3/6 335/3/6
f 336/3/6 337/3/6 340/3/6
f 337/2/6 338/2/6 341/2/6
f 340/3/6 337/3/6 341/3/6
f 341/2/6 338/2/6 342/2/6
f 339/3/6 340/3/6 344/3/6
f 342/3/6 343/3/6 344/3/6
f 341/3/6 342/3/6 344/3/6
f 340/3/6 341/3/6 344/3/6
f 344/3/6 343/3/6 345/3/6
f 339/3/6 344/3/6 346/3/6
f 345/3/6 343/3/6 347/3/6
f 339/3/6 346/3/6 348/3/6
f 346/3/6 347/3/6 348/3/6
f 348/3/6 347/3/6 349/3/6
f 349/3/6 347/3/6 350/3/6
f 350/3/6 347/3/6 351/3/6
f 347/3/6 343/3/6 352/3/6
f 351/3/6 347/3/6 352/3/6
f 352/3/6 343/3/6 353/3/6
f 349/2/6 350/2/6 354/2/6
f 350/3/6 351/3/6 355/3/6
f 354/2/6 350/2/6 355/2/6
f 351/2/6 352/2/6 356/2/6
f 355/3/6 351/3/6 356/3/6
f 356/2/6 352/2/6 357/2/6
f 358/4/6 359/4/6 361/4/6
f 359/3/6 360/3/6 361/3/6
f 361/3/6 360/3/6 362/3/6
f 358/4/6 361/4/6 363/4/6
f 361/4/6 362/4/6 363/4/6
f 363/4/6 362/4/6 364/4/6
f 364/4/6 362/4/6 365/4/6
f 365/4/6 362/4/6 366/4/6
f 363/3/6 364/3/6 367/3/6
f 364/4/6 365/4/6 368/4/6
f 367/3/6 364/3/6 368/3/6
f 365/3/6 366/3/6 369/3/6
f 368/4/6 365/4/6 369/4/6
f 369/3/6 366/3/6 370/3/6
f 367/4/6 368/4/6 371/4/6
f 368/4/6 369/4/6 371/4/6
f 369/4/6 370/4/6 371/4/6
f 371/4/6 370/4/6 372/4/6
