# MagicaVoxel @ Ephtracy

# group
g yellow frog

# material
mtllib yellow frog.mtl
usemtl palette

# normals
vn -1 0 0
vn 1 0 0
vn 0 0 1
vn 0 0 -1
vn 0 -1 0
vn 0 1 0

# texcoords
vt 0.0136719 0.5
vt 0.0683594 0.5
vt 0.841797 0.5
vt 0.908203 0.5
vt 0.958984 0.5
vt 0.994141 0.5

# verts
v -10 0 16
v -10 0 14
v -10 1 16
v -10 1 14
v -10 2 16
v -10 2 9
v -10 4 14
v -10 4 10
v -10 5 14
v -10 5 10
v -10 7 16
v -10 7 9
v -9 0 10
v -9 0 6
v -9 1 16
v -9 1 14
v -9 1 10
v -9 1 7
v -9 1 6
v -9 2 16
v -9 2 9
v -9 5 8
v -9 5 7
v -9 7 16
v -9 7 9
v -9 8 16
v -9 8 8
v -8 8 16
v -8 8 15
v -8 8 12
v -8 8 8
v -8 10 15
v -8 10 12
v -8 11 12
v -8 11 10
v -8 13 12
v -8 13 10
v -8 14 16
v -8 14 8
v -7 0 15
v -7 0 14
v -7 0 7
v -7 0 6
v -7 1 15
v -7 1 14
v -7 1 7
v -7 1 6
v -6 6 8
v -6 6 7
v -6 10 8
v -6 10 7
v -6 13 8
v -6 13 7
v -6 14 10
v -6 14 8
v -6 17 10
v -6 17 7
v 0 13 8
v 0 13 7
v 0 14 10
v 0 14 8
v 0 17 10
v 0 17 7
v 3 0 16
v 3 0 13
v 3 1 16
v 3 1 13
v 3 7 8
v 3 7 7
v 3 9 8
v 3 9 7
v 4 0 9
v 4 0 6
v 4 1 9
v 4 1 7
v 4 1 6
v 6 0 7
v 6 0 6
v 6 1 7
v 6 1 6
v 7 0 14
v 7 0 13
v 7 1 14
v 7 1 13
v -8 0 15
v -8 0 14
v -8 0 7
v -8 0 6
v -8 1 15
v -8 1 14
v -8 1 7
v -8 1 6
v -6 0 16
v -6 0 14
v -6 0 10
v -6 0 6
v -6 1 16
v -6 1 14
v -6 1 10
v -6 1 9
v -6 1 7
v -6 1 6
v -5 7 8
v -5 7 7
v -5 9 8
v -5 9 7
v -2 13 8
v -2 13 7
v -2 14 10
v -2 14 8
v -2 17 10
v -2 17 7
v 4 6 8
v 4 6 7
v 4 10 8
v 4 10 7
v 4 13 8
v 4 13 7
v 4 14 10
v 4 14 8
v 4 17 10
v 4 17 7
v 5 0 7
v 5 0 6
v 5 1 7
v 5 1 6
v 6 0 14
v 6 0 13
v 6 1 14
v 6 1 13
v 6 8 16
v 6 8 15
v 6 8 12
v 6 8 8
v 6 10 15
v 6 10 12
v 6 11 12
v 6 11 10
v 6 13 12
v 6 13 10
v 6 14 16
v 6 14 8
v 7 0 9
v 7 0 6
v 7 1 16
v 7 1 13
v 7 1 9
v 7 1 7
v 7 1 6
v 7 2 16
v 7 2 9
v 7 5 8
v 7 5 7
v 7 7 16
v 7 7 9
v 7 8 16
v 7 8 8
v 8 0 16
v 8 0 13
v 8 1 16
v 8 1 13
v 8 2 16
v 8 2 9
v 8 4 12
v 8 4 11
v 8 6 12
v 8 6 11
v 8 7 16
v 8 7 9
v -10 0 16
v -10 1 16
v -10 2 16
v -10 7 16
v -9 1 16
v -9 2 16
v -9 7 16
v -9 8 16
v -8 8 16
v -8 14 16
v -7 3 16
v -7 4 16
v -7 11 16
v -7 13 16
v -6 0 16
v -6 1 16
v -6 11 16
v -6 13 16
v -5 3 16
v -5 4 16
v -4 6 16
v -4 9 16
v 0 6 16
v 0 9 16
v 1 10 16
v 1 12 16
v 2 4 16
v 2 7 16
v 3 0 16
v 3 1 16
v 4 10 16
v 4 12 16
v 6 4 16
v 6 7 16
v 6 8 16
v 6 14 16
v 7 1 16
v 7 2 16
v 7 7 16
v 7 8 16
v 8 0 16
v 8 1 16
v 8 2 16
v 8 7 16
v -9 0 10
v -9 1 10
v -6 0 10
v -6 1 10
v -6 14 10
v -6 17 10
v -2 14 10
v -2 17 10
v 0 14 10
v 0 17 10
v 4 14 10
v 4 17 10
v 4 0 9
v 4 1 9
v 7 0 9
v 7 1 9
v -8 0 15
v -8 1 15
v -7 0 15
v -7 1 15
v -10 0 14
v -10 1 14
v -9 1 14
v -8 0 14
v -8 1 14
v -7 0 14
v -7 1 14
v -6 0 14
v -6 1 14
v 6 0 14
v 6 1 14
v 7 0 14
v 7 1 14
v 3 0 13
v 3 1 13
v 6 0 13
v 6 1 13
v 7 0 13
v 7 1 13
v 8 0 13
v 8 1 13
v -10 2 9
v -10 7 9
v -9 2 9
v -9 7 9
v 7 2 9
v 7 7 9
v 8 2 9
v 8 7 9
v -9 5 8
v -9 8 8
v -8 8 8
v -8 14 8
v -6 5 8
v -6 6 8
v -6 10 8
v -6 13 8
v -6 14 8
v -5 7 8
v -5 9 8
v -2 13 8
v -2 14 8
v 0 13 8
v 0 14 8
v 3 7 8
v 3 9 8
v 3 11 8
v 3 12 8
v 4 5 8
v 4 6 8
v 4 10 8
v 4 11 8
v 4 12 8
v 4 13 8
v 4 14 8
v 6 8 8
v 6 14 8
v 7 5 8
v 7 8 8
v -9 1 7
v -9 5 7
v -8 0 7
v -8 1 7
v -7 0 7
v -7 1 7
v -6 1 7
v -6 5 7
v -6 6 7
v -6 10 7
v -6 13 7
v -6 17 7
v -5 3 7
v -5 4 7
v -5 7 7
v -5 9 7
v -5 14 7
v -5 16 7
v -3 3 7
v -3 4 7
v -3 14 7
v -3 16 7
v -2 13 7
v -2 17 7
v 0 13 7
v 0 17 7
v 1 14 7
v 1 16 7
v 3 7 7
v 3 9 7
v 3 14 7
v 3 16 7
v 4 1 7
v 4 5 7
v 4 6 7
v 4 10 7
v 4 13 7
v 4 17 7
v 5 0 7
v 5 1 7
v 5 3 7
v 5 4 7
v 6 0 7
v 6 1 7
v 6 3 7
v 6 4 7
v 7 1 7
v 7 5 7
v -9 0 6
v -9 1 6
v -8 0 6
v -8 1 6
v -7 0 6
v -7 1 6
v -6 0 6
v -6 1 6
v 4 0 6
v 4 1 6
v 5 0 6
v 5 1 6
v 6 0 6
v 6 1 6
v 7 0 6
v 7 1 6
v -10 0 16
v -6 0 16
v 3 0 16
v 8 0 16
v -8 0 15
v -7 0 15
v -10 0 14
v -8 0 14
v -7 0 14
v -6 0 14
v 6 0 14
v 7 0 14
v 3 0 13
v 6 0 13
v 7 0 13
v 8 0 13
v -9 0 10
v -6 0 10
v 4 0 9
v 7 0 9
v -8 0 7
v -7 0 7
v 5 0 7
v 6 0 7
v -9 0 6
v -8 0 6
v -7 0 6
v -6 0 6
v 4 0 6
v 5 0 6
v 6 0 6
v 7 0 6
v -6 1 16
v 3 1 16
v -8 1 15
v -7 1 15
v -9 1 14
v -8 1 14
v -7 1 14
v -6 1 14
v 6 1 14
v 7 1 14
v 3 1 13
v 6 1 13
v 7 1 13
v -9 1 10
v -6 1 10
v -6 1 9
v 4 1 9
v 7 1 9
v -6 1 7
v 4 1 7
v -10 2 16
v -9 2 16
v 7 2 16
v 8 2 16
v -10 2 9
v -9 2 9
v 7 2 9
v 8 2 9
v -6 6 8
v 4 6 8
v -6 6 7
v 4 6 7
v -5 9 8
v 3 9 8
v -5 9 7
v 3 9 7
v -6 13 8
v -2 13 8
v 0 13 8
v 4 13 8
v -6 13 7
v -2 13 7
v 0 13 7
v 4 13 7
v -10 1 16
v -9 1 16
v 7 1 16
v 8 1 16
v -10 1 14
v -9 1 14
v 7 1 13
v 8 1 13
v -9 1 7
v -8 1 7
v -7 1 7
v -6 1 7
v 4 1 7
v 5 1 7
v 6 1 7
v 7 1 7
v -9 1 6
v -8 1 6
v -7 1 6
v -6 1 6
v 4 1 6
v 5 1 6
v 6 1 6
v 7 1 6
v -9 5 8
v -6 5 8
v 4 5 8
v 7 5 8
v -9 5 7
v -6 5 7
v 4 5 7
v 7 5 7
v -10 7 16
v -9 7 16
v 7 7 16
v 8 7 16
v -10 7 9
v -9 7 9
v 7 7 9
v 8 7 9
v -5 7 8
v 3 7 8
v -5 7 7
v 3 7 7
v -9 8 16
v -8 8 16
v 6 8 16
v 7 8 16
v -8 8 15
v 6 8 15
v -8 8 12
v 6 8 12
v -9 8 8
v -8 8 8
v 6 8 8
v 7 8 8
v -6 10 8
v 4 10 8
v -6 10 7
v 4 10 7
v -8 14 16
v 6 14 16
v -6 14 10
v -2 14 10
v 0 14 10
v 4 14 10
v -8 14 8
v -6 14 8
v -2 14 8
v 0 14 8
v 4 14 8
v 6 14 8
v -6 17 10
v -2 17 10
v 0 17 10
v 4 17 10
v -6 17 7
v -2 17 7
v 0 17 7
v 4 17 7

# faces
f 3/2/1 2/2/1 1/2/1
f 4/2/1 2/2/1 3/2/1
f 7/1/1 6/1/1 5/1/1
f 8/1/1 6/1/1 7/1/1
f 9/1/1 7/1/1 5/1/1
f 9/4/1 8/4/1 7/4/1
f 10/1/1 6/1/1 8/1/1
f 10/4/1 8/4/1 9/4/1
f 11/1/1 9/1/1 5/1/1
f 11/1/1 10/1/1 9/1/1
f 12/1/1 6/1/1 10/1/1
f 12/1/1 10/1/1 11/1/1
f 17/2/1 14/2/1 13/2/1
f 18/2/1 14/2/1 17/2/1
f 19/2/1 14/2/1 18/2/1
f 20/1/1 16/1/1 15/1/1
f 20/1/1 17/1/1 16/1/1
f 20/1/1 18/1/1 17/1/1
f 21/1/1 18/1/1 20/1/1
f 22/1/1 18/1/1 21/1/1
f 23/1/1 18/1/1 22/1/1
f 25/1/1 22/1/1 21/1/1
f 26/1/1 25/1/1 24/1/1
f 27/1/1 22/1/1 25/1/1
f 27/1/1 25/1/1 26/1/1
f 32/1/1 29/1/1 28/1/1
f 32/4/1 30/4/1 29/4/1
f 33/1/1 31/1/1 30/1/1
f 33/4/1 30/4/1 32/4/1
f 34/1/1 33/1/1 32/1/1
f 34/1/1 31/1/1 33/1/1
f 35/1/1 31/1/1 34/1/1
f 36/1/1 34/1/1 32/1/1
f 36/4/1 35/4/1 34/4/1
f 37/1/1 31/1/1 35/1/1
f 37/4/1 35/4/1 36/4/1
f 38/1/1 32/1/1 28/1/1
f 38/1/1 36/1/1 32/1/1
f 38/1/1 37/1/1 36/1/1
f 39/1/1 31/1/1 37/1/1
f 39/1/1 37/1/1 38/1/1
f 44/2/1 41/2/1 40/2/1
f 45/2/1 41/2/1 44/2/1
f 46/2/1 43/2/1 42/2/1
f 47/2/1 43/2/1 46/2/1
f 50/6/1 49/6/1 48/6/1
f 51/6/1 49/6/1 50/6/1
f 55/5/1 53/5/1 52/5/1
f 56/5/1 55/5/1 54/5/1
f 57/5/1 53/5/1 55/5/1
f 57/5/1 55/5/1 56/5/1
f 61/5/1 59/5/1 58/5/1
f 62/5/1 61/5/1 60/5/1
f 63/5/1 59/5/1 61/5/1
f 63/5/1 61/5/1 62/5/1
f 66/2/1 65/2/1 64/2/1
f 67/2/1 65/2/1 66/2/1
f 70/6/1 69/6/1 68/6/1
f 71/6/1 69/6/1 70/6/1
f 74/2/1 73/2/1 72/2/1
f 75/2/1 73/2/1 74/2/1
f 76/2/1 73/2/1 75/2/1
f 79/2/1 78/2/1 77/2/1
f 80/2/1 78/2/1 79/2/1
f 83/2/1 82/2/1 81/2/1
f 84/2/1 82/2/1 83/2/1
f 85/2/2 86/2/2 89/2/2
f 89/2/2 86/2/2 90/2/2
f 87/2/2 88/2/2 91/2/2
f 91/2/2 88/2/2 92/2/2
f 93/2/2 94/2/2 97/2/2
f 97/2/2 94/2/2 98/2/2
f 95/2/2 96/2/2 99/2/2
f 99/2/2 96/2/2 100/2/2
f 100/2/2 96/2/2 101/2/2
f 101/2/2 96/2/2 102/2/2
f 103/6/2 104/6/2 105/6/2
f 105/6/2 104/6/2 106/6/2
f 107/5/2 108/5/2 110/5/2
f 109/5/2 110/5/2 111/5/2
f 110/5/2 108/5/2 112/5/2
f 111/5/2 110/5/2 112/5/2
f 113/6/2 114/6/2 115/6/2
f 115/6/2 114/6/2 116/6/2
f 117/5/2 118/5/2 120/5/2
f 119/5/2 120/5/2 121/5/2
f 120/5/2 118/5/2 122/5/2
f 121/5/2 120/5/2 122/5/2
f 123/2/2 124/2/2 125/2/2
f 125/2/2 124/2/2 126/2/2
f 127/2/2 128/2/2 129/2/2
f 129/2/2 128/2/2 130/2/2
f 131/1/2 132/1/2 135/1/2
f 132/4/2 133/4/2 135/4/2
f 133/1/2 134/1/2 136/1/2
f 135/4/2 133/4/2 136/4/2
f 135/1/2 136/1/2 137/1/2
f 136/1/2 134/1/2 137/1/2
f 137/1/2 134/1/2 138/1/2
f 135/1/2 137/1/2 139/1/2
f 137/4/2 138/4/2 139/4/2
f 138/1/2 134/1/2 140/1/2
f 139/4/2 138/4/2 140/4/2
f 131/1/2 135/1/2 141/1/2
f 135/1/2 139/1/2 141/1/2
f 139/1/2 140/1/2 141/1/2
f 140/1/2 134/1/2 142/1/2
f 141/1/2 140/1/2 142/1/2
f 143/2/2 144/2/2 147/2/2
f 147/2/2 144/2/2 148/2/2
f 148/2/2 144/2/2 149/2/2
f 145/1/2 146/1/2 150/1/2
f 146/1/2 147/1/2 150/1/2
f 147/1/2 148/1/2 150/1/2
f 150/1/2 148/1/2 151/1/2
f 151/1/2 148/1/2 152/1/2
f 152/1/2 148/1/2 153/1/2
f 151/1/2 152/1/2 155/1/2
f 154/1/2 155/1/2 156/1/2
f 155/1/2 152/1/2 157/1/2
f 156/1/2 155/1/2 157/1/2
f 158/2/2 159/2/2 160/2/2
f 160/2/2 159/2/2 161/2/2
f 162/1/2 163/1/2 164/1/2
f 164/1/2 163/1/2 165/1/2
f 162/1/2 164/1/2 166/1/2
f 164/4/2 165/4/2 166/4/2
f 165/1/2 163/1/2 167/1/2
f 166/4/2 165/4/2 167/4/2
f 162/1/2 166/1/2 168/1/2
f 166/1/2 167/1/2 168/1/2
f 167/1/2 163/1/2 169/1/2
f 168/1/2 167/1/2 169/1/2
f 174/2/3 171/2/3 170/2/3
f 175/1/3 173/1/3 172/1/3
f 176/1/3 173/1/3 175/1/3
f 178/1/3 175/1/3 174/1/3
f 178/1/3 177/1/3 176/1/3
f 178/1/3 176/1/3 175/1/3
f 180/1/3 178/1/3 174/1/3
f 180/1/3 179/1/3 178/1/3
f 181/1/3 179/1/3 180/1/3
f 182/1/3 179/1/3 181/1/3
f 183/1/3 179/1/3 182/1/3
f 184/2/3 174/2/3 170/2/3
f 185/1/3 180/1/3 174/1/3
f 185/2/3 174/2/3 184/2/3
f 186/1/3 182/1/3 181/1/3
f 186/4/3 183/4/3 182/4/3
f 187/1/3 179/1/3 183/1/3
f 187/4/3 183/4/3 186/4/3
f 188/4/3 181/4/3 180/4/3
f 188/1/3 180/1/3 185/1/3
f 189/1/3 186/1/3 181/1/3
f 189/4/3 181/4/3 188/4/3
f 189/1/3 187/1/3 186/1/3
f 190/1/3 189/1/3 188/1/3
f 190/1/3 187/1/3 189/1/3
f 191/1/3 187/1/3 190/1/3
f 192/1/3 190/1/3 188/1/3
f 192/4/3 191/4/3 190/4/3
f 193/1/3 187/1/3 191/1/3
f 193/4/3 191/4/3 192/4/3
f 194/1/3 193/1/3 192/1/3
f 194/1/3 187/1/3 193/1/3
f 195/1/3 187/1/3 194/1/3
f 196/1/3 192/1/3 188/1/3
f 196/1/3 194/1/3 192/1/3
f 197/1/3 194/1/3 196/1/3
f 199/1/3 188/1/3 185/1/3
f 199/1/3 196/1/3 188/1/3
f 200/1/3 194/1/3 197/1/3
f 200/4/3 195/4/3 194/4/3
f 201/1/3 187/1/3 195/1/3
f 201/4/3 195/4/3 200/4/3
f 202/1/3 196/1/3 199/1/3
f 202/4/3 197/4/3 196/4/3
f 203/1/3 200/1/3 197/1/3
f 203/4/3 197/4/3 202/4/3
f 203/1/3 201/1/3 200/1/3
f 204/1/3 201/1/3 203/1/3
f 205/1/3 179/1/3 187/1/3
f 205/1/3 201/1/3 204/1/3
f 205/1/3 187/1/3 201/1/3
f 206/2/3 199/2/3 198/2/3
f 206/1/3 204/1/3 203/1/3
f 206/1/3 202/1/3 199/1/3
f 206/1/3 203/1/3 202/1/3
f 207/1/3 204/1/3 206/1/3
f 208/1/3 204/1/3 207/1/3
f 209/1/3 204/1/3 208/1/3
f 210/2/3 206/2/3 198/2/3
f 211/2/3 206/2/3 210/2/3
f 212/1/3 208/1/3 207/1/3
f 213/1/3 208/1/3 212/1/3
f 216/2/3 215/2/3 214/2/3
f 217/2/3 215/2/3 216/2/3
f 220/5/3 219/5/3 218/5/3
f 221/5/3 219/5/3 220/5/3
f 224/5/3 223/5/3 222/5/3
f 225/5/3 223/5/3 224/5/3
f 228/2/3 227/2/3 226/2/3
f 229/2/3 227/2/3 228/2/3
f 230/2/4 231/2/4 232/2/4
f 232/2/4 231/2/4 233/2/4
f 234/2/4 235/2/4 236/2/4
f 234/2/4 236/2/4 237/2/4
f 237/2/4 236/2/4 238/2/4
f 239/2/4 240/2/4 241/2/4
f 241/2/4 240/2/4 242/2/4
f 243/2/4 244/2/4 245/2/4
f 245/2/4 244/2/4 246/2/4
f 247/2/4 248/2/4 249/2/4
f 249/2/4 248/2/4 250/2/4
f 251/2/4 252/2/4 253/2/4
f 253/2/4 252/2/4 254/2/4
f 255/1/4 256/1/4 257/1/4
f 257/1/4 256/1/4 258/1/4
f 259/1/4 260/1/4 261/1/4
f 261/1/4 260/1/4 262/1/4
f 263/1/4 264/1/4 265/1/4
f 263/1/4 265/1/4 267/1/4
f 265/1/4 266/1/4 267/1/4
f 267/1/4 266/1/4 268/1/4
f 268/1/4 266/1/4 269/1/4
f 269/1/4 266/1/4 270/1/4
f 270/1/4 266/1/4 271/1/4
f 269/1/4 270/1/4 274/1/4
f 269/1/4 274/1/4 276/1/4
f 274/1/4 275/1/4 276/1/4
f 276/1/4 275/1/4 277/1/4
f 272/3/4 273/3/4 278/3/4
f 278/3/4 273/3/4 279/3/4
f 269/1/4 276/1/4 280/1/4
f 280/1/4 276/1/4 281/1/4
f 267/2/4 268/2/4 282/2/4
f 282/2/4 268/2/4 283/2/4
f 269/1/4 280/1/4 284/1/4
f 280/4/4 281/4/4 285/4/4
f 284/1/4 280/1/4 285/1/4
f 281/1/4 276/1/4 286/1/4
f 285/4/4 281/4/4 286/4/4
f 286/1/4 276/1/4 287/1/4
f 284/1/4 285/1/4 289/1/4
f 287/1/4 288/1/4 289/1/4
f 286/1/4 287/1/4 289/1/4
f 285/1/4 286/1/4 289/1/4
f 283/1/4 284/1/4 289/1/4
f 282/1/4 283/1/4 289/1/4
f 289/1/4 288/1/4 290/1/4
f 282/1/4 289/1/4 291/1/4
f 291/1/4 289/1/4 292/1/4
f 293/1/4 294/1/4 296/1/4
f 295/2/4 296/2/4 297/2/4
f 296/1/4 294/1/4 298/1/4
f 297/2/4 296/2/4 298/2/4
f 298/1/4 294/1/4 299/1/4
f 299/1/4 294/1/4 300/1/4
f 299/2/4 300/2/4 305/2/4
f 305/2/4 300/2/4 306/2/4
f 301/6/4 302/6/4 307/6/4
f 307/6/4 302/6/4 308/6/4
f 303/5/4 304/5/4 309/5/4
f 309/5/4 304/5/4 310/5/4
f 299/2/4 305/2/4 311/2/4
f 305/4/4 306/4/4 311/4/4
f 306/2/4 300/2/4 312/2/4
f 311/4/4 306/4/4 312/4/4
f 309/3/4 310/3/4 313/3/4
f 303/5/4 309/5/4 313/5/4
f 310/5/4 304/5/4 314/5/4
f 313/3/4 310/3/4 314/3/4
f 303/5/4 313/5/4 315/5/4
f 313/5/4 314/5/4 315/5/4
f 314/5/4 304/5/4 316/5/4
f 315/5/4 314/5/4 316/5/4
f 317/5/4 318/5/4 319/5/4
f 319/5/4 318/5/4 320/5/4
f 301/6/4 307/6/4 321/6/4
f 308/6/4 302/6/4 322/6/4
f 317/5/4 319/5/4 323/5/4
f 319/3/4 320/3/4 323/3/4
f 320/5/4 318/5/4 324/5/4
f 323/3/4 320/3/4 324/3/4
f 299/2/4 311/2/4 325/2/4
f 311/2/4 312/2/4 325/2/4
f 312/2/4 300/2/4 326/2/4
f 325/2/4 312/2/4 326/2/4
f 301/6/4 321/6/4 327/6/4
f 321/6/4 322/6/4 327/6/4
f 322/6/4 302/6/4 328/6/4
f 327/6/4 322/6/4 328/6/4
f 317/5/4 323/5/4 329/5/4
f 323/5/4 324/5/4 329/5/4
f 324/5/4 318/5/4 330/5/4
f 329/5/4 324/5/4 330/5/4
f 325/1/4 326/1/4 332/1/4
f 332/1/4 326/1/4 333/1/4
f 333/1/4 326/1/4 334/1/4
f 331/2/4 332/2/4 335/2/4
f 332/1/4 333/1/4 336/1/4
f 335/2/4 332/2/4 336/2/4
f 333/4/4 334/4/4 337/4/4
f 336/1/4 333/1/4 337/1/4
f 334/1/4 326/1/4 338/1/4
f 337/4/4 334/4/4 338/4/4
f 336/1/4 337/1/4 339/1/4
f 337/1/4 338/1/4 339/1/4
f 338/1/4 326/1/4 340/1/4
f 339/1/4 338/1/4 340/1/4
f 341/2/4 342/2/4 343/2/4
f 343/2/4 342/2/4 344/2/4
f 345/2/4 346/2/4 347/2/4
f 347/2/4 346/2/4 348/2/4
f 349/2/4 350/2/4 351/2/4
f 351/2/4 350/2/4 352/2/4
f 353/2/4 354/2/4 355/2/4
f 355/2/4 354/2/4 356/2/4
f 361/2/5 358/2/5 357/2/5
f 362/2/5 358/2/5 361/2/5
f 363/2/5 361/2/5 357/2/5
f 364/2/5 361/2/5 363/2/5
f 365/2/5 358/2/5 362/2/5
f 366/2/5 358/2/5 365/2/5
f 367/2/5 360/2/5 359/2/5
f 368/2/5 360/2/5 367/2/5
f 369/2/5 367/2/5 359/2/5
f 370/2/5 367/2/5 369/2/5
f 371/2/5 360/2/5 368/2/5
f 372/2/5 360/2/5 371/2/5
f 377/2/5 374/2/5 373/2/5
f 378/2/5 374/2/5 377/2/5
f 379/2/5 376/2/5 375/2/5
f 380/2/5 376/2/5 379/2/5
f 381/2/5 377/2/5 373/2/5
f 382/2/5 377/2/5 381/2/5
f 383/2/5 374/2/5 378/2/5
f 384/2/5 374/2/5 383/2/5
f 385/2/5 379/2/5 375/2/5
f 386/2/5 379/2/5 385/2/5
f 387/2/5 376/2/5 380/2/5
f 388/2/5 376/2/5 387/2/5
f 394/1/5 392/1/5 391/1/5
f 395/1/5 392/1/5 394/1/5
f 396/1/5 390/1/5 389/1/5
f 399/1/5 395/1/5 394/1/5
f 399/1/5 394/1/5 393/1/5
f 399/1/5 396/1/5 395/1/5
f 399/1/5 390/1/5 396/1/5
f 400/1/5 398/1/5 397/1/5
f 401/1/5 398/1/5 400/1/5
f 402/1/5 399/1/5 393/1/5
f 402/1/5 400/1/5 399/1/5
f 402/1/5 401/1/5 400/1/5
f 403/1/5 401/1/5 402/1/5
f 404/1/5 401/1/5 403/1/5
f 405/1/5 401/1/5 404/1/5
f 406/1/5 401/1/5 405/1/5
f 407/2/5 405/2/5 404/2/5
f 408/2/5 405/2/5 407/2/5
f 413/1/5 410/1/5 409/1/5
f 414/1/5 410/1/5 413/1/5
f 415/1/5 412/1/5 411/1/5
f 416/1/5 412/1/5 415/1/5
f 419/6/5 418/6/5 417/6/5
f 420/6/5 418/6/5 419/6/5
f 423/6/5 422/6/5 421/6/5
f 424/6/5 422/6/5 423/6/5
f 429/5/5 426/5/5 425/5/5
f 430/5/5 426/5/5 429/5/5
f 431/5/5 428/5/5 427/5/5
f 432/5/5 428/5/5 431/5/5
f 433/2/6 434/2/6 437/2/6
f 437/2/6 434/2/6 438/2/6
f 435/2/6 436/2/6 439/2/6
f 439/2/6 436/2/6 440/2/6
f 441/2/6 442/2/6 449/2/6
f 449/2/6 442/2/6 450/2/6
f 443/2/6 444/2/6 451/2/6
f 451/2/6 444/2/6 452/2/6
f 445/2/6 446/2/6 453/2/6
f 453/2/6 446/2/6 454/2/6
f 447/2/6 448/2/6 455/2/6
f 455/2/6 448/2/6 456/2/6
f 457/1/6 458/1/6 461/1/6
f 458/2/6 459/2/6 462/2/6
f 461/1/6 458/1/6 462/1/6
f 459/1/6 460/1/6 463/1/6
f 462/2/6 459/2/6 463/2/6
f 463/1/6 460/1/6 464/1/6
f 465/1/6 466/1/6 469/1/6
f 469/1/6 466/1/6 470/1/6
f 467/1/6 468/1/6 471/1/6
f 471/1/6 468/1/6 472/1/6
f 473/6/6 474/6/6 475/6/6
f 475/6/6 474/6/6 476/6/6
f 477/1/6 478/1/6 481/1/6
f 479/1/6 480/1/6 482/1/6
f 477/1/6 481/1/6 483/1/6
f 482/1/6 480/1/6 484/1/6
f 477/1/6 483/1/6 485/1/6
f 485/1/6 483/1/6 486/1/6
f 484/1/6 480/1/6 487/1/6
f 487/1/6 480/1/6 488/1/6
f 489/6/6 490/6/6 491/6/6
f 491/6/6 490/6/6 492/6/6
f 493/1/6 494/1/6 495/1/6
f 495/1/6 494/1/6 496/1/6
f 496/1/6 494/1/6 497/1/6
f 497/1/6 494/1/6 498/1/6
f 493/1/6 495/1/6 499/1/6
f 499/1/6 495/1/6 500/1/6
f 496/1/6 497/1/6 501/1/6
f 501/1/6 497/1/6 502/1/6
f 498/1/6 494/1/6 503/1/6
f 503/1/6 494/1/6 504/1/6
f 505/5/6 506/5/6 509/5/6
f 509/5/6 506/5/6 510/5/6
f 507/5/6 508/5/6 511/5/6
f 511/5/6 508/5/6 512/5/6
